<svg role="img" xmlns="http://www.w3.org/2000/svg" viewBox="0 0 760 760" height="760" style="background:#1a1a2e;border-radius:8px;font-family:sans-serif">
  <title>Gleba Pentapod Defense Layout — Factorio Space Age Guide</title>

  <!-- Header -->
  <rect x="0" y="0" height="48" fill="#1f1f2e" rx="8"/>
  <rect x="0" y="42" height="6" fill="#1a1a2e"/>
  <text x="380" y="30" text-anchor="middle" font-size="16" font-weight="700" fill="#e8941c">GLEBA PENTAPOD DEFENSE LAYOUT — DEFENSE-IN-DEPTH</text>

  <!-- ===== Outer map area (grass background) ===== -->
  <rect x="20" y="58" width="720" height="650" rx="8" fill="#0a1a0a" stroke="#2a3a2a" stroke-width="1"/>

  <!-- ===== SPORE CLOUD (dashed circle) ===== -->
  <circle cx="380" cy="383" r="240" fill="#2a5a2a" fill-opacity="0.08" stroke="#6abe30" stroke-width="2" stroke-dasharray="8,6" stroke-opacity="0.5"/>
  <text x="380" y="140" text-anchor="middle" font-size="13" fill="#6abe30" fill-opacity="0.5" font-style="italic">Spore cloud radius</text>
  <text x="380" y="155" text-anchor="middle" font-size="11" fill="#4a8e20" fill-opacity="0.5" font-style="italic">(expands with processing output)</text>

  <!-- ===== PROCESSING AREA (center) ===== -->
  <rect x="290" y="328" width="180" height="110" rx="6" fill="#1a2e1a" stroke="#6abe30" stroke-width="1.5"/>
  <text x="380" y="348" text-anchor="middle" font-size="13" font-weight="700" fill="#88dd44">🍇 Fruit Processing</text>
  <text x="380" y="365" text-anchor="middle" font-size="11" fill="#6abe30">Bioflux &amp; Nutrients</text>
  <text x="380" y="382" text-anchor="middle" font-size="11" fill="#6abe30">Bacteria Vats</text>
  <text x="380" y="399" text-anchor="middle" font-size="11" fill="#6abe30">Science Production</text>
  <text x="380" y="416" text-anchor="middle" font-size="11" fill="#6abe30">Agri Science Packs</text>
  <text x="380" y="433" text-anchor="middle" font-size="11" fill="#6abe30">▶ Heating Tower (burn excess)</text>

  <!-- ===== MAIN BASE (left side, connected by belt) ===== -->
  <rect x="60" y="340" width="150" height="86" rx="6" fill="#1a1a2e" stroke="#5588cc" stroke-width="1" stroke-dasharray="4,3"/>
  <text x="135" y="360" text-anchor="middle" font-size="12" font-weight="700" fill="#5588cc">🏠 Main Base</text>
  <text x="135" y="378" text-anchor="middle" font-size="11" fill="#6688aa">Mall &amp; Labs</text>
  <text x="135" y="395" text-anchor="middle" font-size="11" fill="#6688aa">Import processing</text>
  <text x="135" y="412" text-anchor="middle" font-size="11" fill="#6688aa">(minimal spore output)</text>

  <!-- Belt line from main base to processing -->
  <line x1="210" y1="383" x2="290" y2="383" stroke="#555" stroke-width="2" stroke-dasharray="4,2"/>
  <polygon points="290,378 300,383 290,388" fill="#555"/>
  <text x="250" y="372" text-anchor="middle" font-size="10" fill="#555">Belt (bioflux → base)</text>

  <!-- ===== DEFENSE LAYERS ===== -->

  <!-- Layer 1: Landmine field (outermost) -->
  <rect x="160" y="220" width="440" height="326" rx="180" fill="none" stroke="#cc6600" stroke-width="2" stroke-dasharray="2,6" stroke-opacity="0.4"/>
  <text x="380" y="220" text-anchor="middle" font-size="10" fill="#cc6600" fill-opacity="0.6">Layer 1: Landmines</text>

  <!-- Landmine dots -->
  <circle cx="380" cy="275" r="3" fill="#cc6600" opacity="0.7"/>
  <circle cx="320" cy="285" r="3" fill="#cc6600" opacity="0.7"/>
  <circle cx="440" cy="285" r="3" fill="#cc6600" opacity="0.7"/>
  <circle cx="290" cy="320" r="3" fill="#cc6600" opacity="0.7"/>
  <circle cx="470" cy="320" r="3" fill="#cc6600" opacity="0.7"/>
  <circle cx="270" cy="370" r="3" fill="#cc6600" opacity="0.7"/>
  <circle cx="490" cy="370" r="3" fill="#cc6600" opacity="0.7"/>
  <circle cx="290" cy="420" r="3" fill="#cc6600" opacity="0.7"/>
  <circle cx="470" cy="420" r="3" fill="#cc6600" opacity="0.7"/>
  <circle cx="320" cy="455" r="3" fill="#cc6600" opacity="0.7"/>
  <circle cx="440" cy="455" r="3" fill="#cc6600" opacity="0.7"/>
  <circle cx="380" cy="475" r="3" fill="#cc6600" opacity="0.7"/>

  <!-- Layer 2: Outer wall -->
  <rect x="175" y="235" width="410" height="296" rx="150" fill="none" stroke="#888" stroke-width="3" stroke-opacity="0.4"/>
  <text x="380" y="250" text-anchor="middle" font-size="10" fill="#888" fill-opacity="0.6">Layer 2: Outer wall (sacrificial, 1-thick)</text>

  <!-- Gun turrets on outer wall -->
  <circle cx="380" cy="265" r="8" fill="#444" stroke="#aaa" stroke-width="1.5"/>
  <text x="380" y="258" text-anchor="middle" font-size="8" fill="#ccc" font-weight="bold">GT</text>

  <circle cx="300" cy="290" r="8" fill="#444" stroke="#aaa" stroke-width="1.5"/>
  <text x="300" y="283" text-anchor="middle" font-size="8" fill="#ccc" font-weight="bold">GT</text>

  <circle cx="460" cy="290" r="8" fill="#444" stroke="#aaa" stroke-width="1.5"/>
  <text x="460" y="283" text-anchor="middle" font-size="8" fill="#ccc" font-weight="bold">GT</text>

  <circle cx="265" cy="345" r="8" fill="#444" stroke="#aaa" stroke-width="1.5"/>
  <text x="265" y="338" text-anchor="middle" font-size="8" fill="#ccc" font-weight="bold">GT</text>

  <circle cx="495" cy="345" r="8" fill="#444" stroke="#aaa" stroke-width="1.5"/>
  <text x="495" y="338" text-anchor="middle" font-size="8" fill="#ccc" font-weight="bold">GT</text>

  <circle cx="265" cy="410" r="8" fill="#444" stroke="#aaa" stroke-width="1.5"/>
  <text x="265" y="403" text-anchor="middle" font-size="8" fill="#ccc" font-weight="bold">GT</text>

  <circle cx="495" cy="410" r="8" fill="#444" stroke="#aaa" stroke-width="1.5"/>
  <text x="495" y="403" text-anchor="middle" font-size="8" fill="#ccc" font-weight="bold">GT</text>

  <circle cx="300" cy="455" r="8" fill="#444" stroke="#aaa" stroke-width="1.5"/>
  <text x="300" y="448" text-anchor="middle" font-size="8" fill="#ccc" font-weight="bold">GT</text>

  <circle cx="460" cy="455" r="8" fill="#444" stroke="#aaa" stroke-width="1.5"/>
  <text x="460" y="448" text-anchor="middle" font-size="8" fill="#ccc" font-weight="bold">GT</text>

  <circle cx="380" cy="475" r="8" fill="#444" stroke="#aaa" stroke-width="1.5"/>
  <text x="380" y="468" text-anchor="middle" font-size="8" fill="#ccc" font-weight="bold">GT</text>

  <!-- Kill zone gap (between outer and inner wall) -->
  <line x1="192" y1="490" x2="210" y2="490" stroke="#ee4444" stroke-width="2" stroke-dasharray="3,3" opacity="0.6"/>
  <line x1="550" y1="490" x2="568" y2="490" stroke="#ee4444" stroke-width="2" stroke-dasharray="3,3" opacity="0.6"/>
  <text x="380" y="498" text-anchor="middle" font-size="11" fill="#ee4444" font-weight="bold">KILL ZONE</text>
  <text x="380" y="512" text-anchor="middle" font-size="10" fill="#ee4444" opacity="0.7">(3-5 tile gap for rocket &amp; gun turret fire)</text>

  <!-- Layer 3: Inner wall (strong) -->
  <rect x="200" y="280" width="360" height="206" rx="100" fill="none" stroke="#5588cc" stroke-width="5"/>
  <text x="570" y="280" text-anchor="middle" font-size="10" fill="#5588cc" font-weight="bold">Layer 3: Inner wall (2-thick, repaired)</text>

  <!-- Rocket turrets on inner wall -->
  <circle cx="380" cy="290" r="10" fill="#2a1a0a" stroke="#ee7733" stroke-width="2"/>
  <text x="380" y="284" text-anchor="middle" font-size="8" fill="#ee7733" font-weight="bold">RT</text>

  <circle cx="310" cy="320" r="10" fill="#2a1a0a" stroke="#ee7733" stroke-width="2"/>
  <text x="310" y="314" text-anchor="middle" font-size="8" fill="#ee7733" font-weight="bold">RT</text>

  <circle cx="450" cy="320" r="10" fill="#2a1a0a" stroke="#ee7733" stroke-width="2"/>
  <text x="450" y="314" text-anchor="middle" font-size="8" fill="#ee7733" font-weight="bold">RT</text>

  <circle cx="260" cy="370" r="10" fill="#2a1a0a" stroke="#ee7733" stroke-width="2"/>
  <text x="260" y="364" text-anchor="middle" font-size="8" fill="#ee7733" font-weight="bold">RT</text>

  <circle cx="500" cy="370" r="10" fill="#2a1a0a" stroke="#ee7733" stroke-width="2"/>
  <text x="500" y="364" text-anchor="middle" font-size="8" fill="#ee7733" font-weight="bold">RT</text>

  <circle cx="310" cy="430" r="10" fill="#2a1a0a" stroke="#ee7733" stroke-width="2"/>
  <text x="310" y="424" text-anchor="middle" font-size="8" fill="#ee7733" font-weight="bold">RT</text>

  <circle cx="450" cy="430" r="10" fill="#2a1a0a" stroke="#ee7733" stroke-width="2"/>
  <text x="450" y="424" text-anchor="middle" font-size="8" fill="#ee7733" font-weight="bold">RT</text>

  <circle cx="380" cy="460" r="10" fill="#2a1a0a" stroke="#ee7733" stroke-width="2"/>
  <text x="380" y="454" text-anchor="middle" font-size="8" fill="#ee7733" font-weight="bold">RT</text>

  <!-- Roboport icons -->
  <rect x="235" y="295" width="14" height="14" rx="2" fill="#2255aa" stroke="#5588cc" stroke-width="1"/>
  <text x="242" y="305" text-anchor="middle" font-size="8" fill="#88bbff">🤖</text>

  <rect x="511" y="295" width="14" height="14" rx="2" fill="#2255aa" stroke="#5588cc" stroke-width="1"/>
  <text x="518" y="305" text-anchor="middle" font-size="8" fill="#88bbff">🤖</text>

  <rect x="235" y="440" width="14" height="14" rx="2" fill="#2255aa" stroke="#5588cc" stroke-width="1"/>
  <text x="242" y="450" text-anchor="middle" font-size="8" fill="#88bbff">🤖</text>

  <rect x="511" y="440" width="14" height="14" rx="2" fill="#2255aa" stroke="#5588cc" stroke-width="1"/>
  <text x="518" y="450" text-anchor="middle" font-size="8" fill="#88bbff">🤖</text>

  <!-- ===== PENTAPOD APPROACH (from top) ===== -->
  <!-- Attack direction arrow -->
  <line x1="380" y1="65" x2="380" y2="120" stroke="#ee4444" stroke-width="3" stroke-dasharray="8,4"/>
  <polygon points="380,65 373,80 387,80" fill="#ee4444"/>
  <polygon points="380,120 375,115 380,120 385,115" fill="#ee4444"/>
  <text x="420" y="95" font-size="13" font-weight="700" fill="#ee4444">PENTAPOD WAVE</text>
  <text x="420" y="110" font-size="10" fill="#ee4444" opacity="0.7">(attracted by spore cloud)</text>

  <!-- Pentapod icons -->
  <circle cx="350" cy="80" r="6" fill="none" stroke="#ee4444" stroke-width="1.5" opacity="0.6"/>
  <text x="350" y="84" text-anchor="middle" font-size="9" fill="#ee4444" opacity="0.6">🦎</text>

  <circle cx="400" cy="75" r="6" fill="none" stroke="#ee4444" stroke-width="1.5" opacity="0.6"/>
  <text x="400" y="79" text-anchor="middle" font-size="9" fill="#ee4444" opacity="0.6">🦎</text>

  <circle cx="360" cy="100" r="6" fill="none" stroke="#ee4444" stroke-width="1.5" opacity="0.6"/>
  <text x="360" y="104" text-anchor="middle" font-size="9" fill="#ee4444" opacity="0.6">🦎</text>

  <!-- ===== SIDE APPROACH (from right) ===== -->
  <line x1="730" y1="383" x2="580" y2="383" stroke="#ee4444" stroke-width="2.5" stroke-dasharray="8,4" opacity="0.5"/>
  <polygon points="730,383 715,376 715,390" fill="#ee4444" opacity="0.5"/>

  <!-- ===== LEGEND (bottom) ===== -->
  <rect x="20" y="590" width="720" height="108" rx="6" fill="#1f1f2e" stroke="#333" stroke-width="1"/>

  <text x="380" y="612" text-anchor="middle" font-size="14" font-weight="700" fill="#ccc">LEGEND</text>

  <!-- Legend items -->
  <rect x="40" y="625" width="16" height="16" rx="4" fill="#1a2e1a" stroke="#6abe30" stroke-width="1.5"/>
  <text x="62" y="637" font-size="11" fill="#ccc">Processing area</text>

  <rect x="200" y="625" width="16" height="16" rx="4" fill="#1a1a2e" stroke="#5588cc" stroke-width="1" stroke-dasharray="3,2"/>
  <text x="222" y="637" font-size="11" fill="#ccc">Main base</text>

  <circle cx="370" cy="633" r="8" fill="#444" stroke="#aaa" stroke-width="1.5"/>
  <text x="385" y="637" font-size="11" fill="#ccc">Gun turret</text>

  <circle cx="510" cy="633" r="10" fill="#2a1a0a" stroke="#ee7733" stroke-width="2"/>
  <text x="525" y="637" font-size="11" fill="#ccc">Rocket turret</text>

  <!-- Row 2 -->
  <circle cx="85" cy="660" r="3" fill="#cc6600"/>
  <text x="95" y="663" font-size="11" fill="#ccc">Landmines</text>

  <line x1="210" y1="658" x2="240" y2="658" stroke="#888" stroke-width="3"/>
  <text x="250" y="663" font-size="11" fill="#ccc">Outer wall (1-thick)</text>

  <line x1="380" y1="658" x2="410" y2="658" stroke="#5588cc" stroke-width="5"/>
  <text x="420" y="663" font-size="11" fill="#ccc">Inner wall (2-thick)</text>

  <line x1="530" y1="658" x2="560" y2="658" stroke="#6abe30" stroke-width="2" stroke-dasharray="6,4" opacity="0.5"/>
  <text x="568" y="663" font-size="11" fill="#ccc">Spore cloud</text>

  <!-- Row 3 -->
  <text x="60" y="682" font-size="11" fill="#ee4444" font-weight="bold">Attack direction: ↓</text>

  <text x="260" y="682" font-size="11" fill="#ee4444" font-weight="bold">Kill zone:</text>
  <text x="320" y="682" font-size="11" fill="#ee4444" opacity="0.7">Rocket turrets + gun turrets overlap</text>

  <rect x="540" y="672" width="14" height="14" rx="2" fill="#2255aa" stroke="#5588cc" stroke-width="1"/>
  <text x="560" y="683" font-size="11" fill="#ccc">Roboport</text>

  <!-- ===== TIP ===== -->
  <rect x="20" y="706" width="720" height="36" rx="4" fill="#1a1a1a" stroke="#444" stroke-width="1"/>
  <text x="380" y="724" text-anchor="middle" font-size="11" fill="#888" font-style="italic">💡 Key insight: Separate fruit processing 200+ tiles from main base. The processing outpost attracts ~80% of pentapod attacks.</text>
</svg>
