<svg role="img" xmlns="http://www.w3.org/2000/svg" viewBox="0 0 960 440" width="960" height="440">
  <title>Bluescience Cell — Factorio Guide</title>
  <defs><filter id="g"><feGaussianBlur stdDeviation="2" result="b"/><feMerge><feMergeNode in="b"/><feMergeNode in="SourceGraphic"/></feMerge></filter></defs>
  <rect width="960" height="440" fill="#1f1f1f" rx="6"/>
  <line x1="0" y1="55" x2="960" y2="55" stroke="#333"/>
  <text x="480" y="32" text-anchor="middle" font-family="sans-serif" font-size="16" font-weight="900" fill="#3778c8">BLUE SCIENCE — COMPACT PRODUCTION CELL</text>

  <!-- ===== Main Bus ===== -->
  <rect x="30" y="75" width="150" height="32" rx="3" fill="#777" opacity="0.3"/>
  <text x="105" y="96" text-anchor="middle" font-size="16" fill="#777" font-weight="bold">Main Bus (4 Belts)</text>
  <rect x="30" y="110" width="150" height="32" rx="3" fill="#5599ee" opacity="0.2" stroke="#5599ee" stroke-width="1"/>
  <text x="105" y="132" text-anchor="middle" font-size="16" fill="#5599ee">Petroleum Pipe</text>

  
  <line x1="180" y1="140" x2="180" y2="160" stroke="#555" stroke-width="2" />
  <line x1="180" y1="160" x2="270" y2="160" stroke="#555" stroke-width="2" />

  <!-- ===== Engine Assembly ===== -->
  <rect x="272" y="135" width="150" height="60" rx="5" fill="#2a2a2a" stroke="#3778c8" stroke-width="1.5"/>
  <text x="347" y="160" text-anchor="middle" font-size="16" fill="#888" font-weight="bold">Engine Units</text>
  <text x="347" y="182" text-anchor="middle" font-size="16" fill="#666">Assembler × 2</text>

  <!-- ===== Sulfur Plant ===== -->
  <rect x="480" y="135" width="150" height="60" rx="5" fill="#2a2a2a" stroke="#3778c8" stroke-width="1.5"/>
  <text x="555" y="160" text-anchor="middle" font-size="16" fill="#888" font-weight="bold">Sulfur</text>
  <text x="555" y="182" text-anchor="middle" font-size="16" fill="#666">Chemical Plant × 1</text>

  
  <line x1="347" y1="195" x2="347" y2="215" stroke="#555" stroke-width="1.5" />
  <line x1="555" y1="195" x2="555" y2="215" stroke="#555" stroke-width="1.5" />

  <!-- ===== Belt Input Row ===== -->
  <rect x="50" y="215" width="130" height="30" rx="3" fill="#444"/>
  <text x="115" y="235" text-anchor="middle" font-size="16" fill="#888">Iron &amp; Steel Belt</text>
  <rect x="200" y="215" width="130" height="30" rx="3" fill="#444"/>
  <text x="265" y="235" text-anchor="middle" font-size="16" fill="#888">Copper Belt</text>
  <rect x="620" y="215" width="130" height="30" rx="3" fill="#444"/>
  <text x="685" y="235" text-anchor="middle" font-size="16" fill="#888">Red Circuit Belt</text>

  <!-- ===== Science Assembler Row ===== -->
  <rect x="50" y="255" width="100" height="50" rx="4" fill="#1a3a5c" stroke="#3778c8" stroke-width="1.5"/>
  <text x="100" y="276" text-anchor="middle" font-size="16" fill="#88ccff">Science 1</text>
  <text x="100" y="296" text-anchor="middle" font-size="16" fill="#666">Assembler</text>

  <rect x="162" y="255" width="100" height="50" rx="4" fill="#1a3a5c" stroke="#3778c8" stroke-width="1.5"/>
  <text x="212" y="276" text-anchor="middle" font-size="16" fill="#88ccff">Science 2</text>
  <text x="212" y="296" text-anchor="middle" font-size="16" fill="#666">Assembler</text>

  <rect x="274" y="255" width="100" height="50" rx="4" fill="#1a3a5c" stroke="#3778c8" stroke-width="1.5"/>
  <text x="324" y="276" text-anchor="middle" font-size="16" fill="#88ccff">Science 3</text>
  <text x="324" y="296" text-anchor="middle" font-size="16" fill="#666">Assembler</text>

  <rect x="386" y="255" width="100" height="50" rx="4" fill="#1a3a5c" stroke="#3778c8" stroke-width="1.5"/>
  <text x="436" y="276" text-anchor="middle" font-size="16" fill="#88ccff">Science 4</text>
  <text x="436" y="296" text-anchor="middle" font-size="16" fill="#666">Assembler</text>

  <rect x="498" y="255" width="100" height="50" rx="4" fill="#1a3a5c" stroke="#3778c8" stroke-width="1.5"/>
  <text x="548" y="276" text-anchor="middle" font-size="16" fill="#88ccff">Science 5</text>
  <text x="548" y="296" text-anchor="middle" font-size="16" fill="#666">Assembler</text>

  
  <rect x="50" y="315" width="548" height="6" rx="2" fill="#3778c8" />

  <line x1="598" y1="318" x2="670" y2="318" stroke="#3778c8" stroke-width="2.5" />
  <polygon points="670,313 685,318 670,323" fill="#3778c8" />

  <!-- ===== Labs ===== -->
  <rect x="688" y="293" width="120" height="52" rx="5" fill="#2a2a2a" stroke="#555"/>
  <text x="748" y="318" text-anchor="middle" font-size="16" fill="#999" font-weight="bold">Labs</text>
  <text x="748" y="338" text-anchor="middle" font-size="16" fill="#666">Science Input</text>

  <!-- ===== Dimension Notes ===== -->
  <line x1="50" y1="347" x2="50" y2="365" stroke="#444" stroke-width="1"/>
  <line x1="598" y1="347" x2="598" y2="365" stroke="#444" stroke-width="1"/>
  <text x="324" y="362" text-anchor="middle" font-size="16" fill="#555">Total width: ~15 tiles (use underground belts)</text>

  <!-- Layout note -->
  <text x="480" y="410" text-anchor="middle" font-size="16" fill="#555">Tip: Park the engine and sulfur sub-factories next to the bus. 5 sciences in a single row fed by one output belt.</text>
</svg>
