<svg role="img" xmlns="http://www.w3.org/2000/svg" viewBox="0 0 600 350" width="600" height="350" style="background:#111;font-family:system-ui,sans-serif;">
  <title>Platform Defense — Factorio Guide</title>
  <text x="300" y="30" fill="#e8941c" font-size="16" text-anchor="middle" font-weight="bold">Platform Defense Layout</text>
  <rect x="50" y="100" width="500" height="100" rx="4" fill="#1a1a1a" stroke="#555" stroke-width="1" />
  <text x="300" y="225" fill="#444" font-size="10" text-anchor="middle">Platform Hull</text>
  <rect x="60" y="110" width="80" height="80" rx="4" fill="#1a1a2e" stroke="#9d4edd" stroke-width="2"/>
  <text x="100" y="145" fill="#fff" font-size="11" text-anchor="middle" font-weight="bold">HUB</text><text x="100" y="160" fill="#9d4edd" font-size="9" text-anchor="middle">(Protected)</text>
  <rect x="160" y="120" width="120" height="60" rx="4" fill="#252525" stroke="#888" stroke-width="1.5"/>
  <text x="220" y="148" fill="#ccc" font-size="10" text-anchor="middle">Processing</text><text x="220" y="162" fill="#888" font-size="9" text-anchor="middle">Crushers + Fuel</text>
  <rect x="300" y="120" width="100" height="60" rx="4" fill="#252525" stroke="#888" stroke-width="1.5"/>
  <text x="350" y="148" fill="#ccc" font-size="10" text-anchor="middle">Storage</text><text x="350" y="162" fill="#888" font-size="9" text-anchor="middle">Fuel + Ammo</text>
  <rect x="420" y="130" width="110" height="40" rx="4" fill="#252525" stroke="#c9463d" stroke-width="2"/>
  <text x="475" y="152" fill="#c9463d" font-size="10" text-anchor="middle">Thrusters</text>
  <line x1="50" y1="100" x2="50" y2="200" stroke="#c9463d" stroke-width="3"/>
  <text x="35" y="155" fill="#c9463d" font-size="9" text-anchor="middle" transform="rotate(-90,35,155)">FRONT WALL</text>
  <circle cx="90" cy="70" r="15" fill="none" stroke="#c9463d" stroke-width="1.5" stroke-dasharray="3,2"/>
  <text x="90" y="74" fill="#c9463d" font-size="9" text-anchor="middle">T1</text>
  <circle cx="130" cy="70" r="15" fill="none" stroke="#c9463d" stroke-width="1.5" stroke-dasharray="3,2"/>
  <text x="130" y="74" fill="#c9463d" font-size="9" text-anchor="middle">T2</text>
  <circle cx="170" cy="70" r="15" fill="none" stroke="#c9463d" stroke-width="1.5" stroke-dasharray="3,2"/>
  <text x="170" y="74" fill="#c9463d" font-size="9" text-anchor="middle">T3</text>
  <text x="130" y="55" fill="#c9463d" font-size="9" text-anchor="middle">Front turrets</text>
  <text x="300" y="265" fill="#888" font-size="10" text-anchor="middle">Asteroids approach from the front. Front turrets handle 80% of impacts.</text>
</svg>