<svg xmlns="http://www.w3.org/2000/svg" viewBox="0 0 600 300" width="600" height="300" style="background:#111;font-family:system-ui,sans-serif;">
  <rect x="10" y="10" width="280" height="280" rx="4" fill="none" stroke="#c9463d" stroke-width="2" stroke-dasharray="6,3"/>
  <text x="150" y="270" fill="#c9463d" font-size="14" text-anchor="middle">Red Wire Network</text>
  <circle cx="100" cy="100" r="20" fill="none" stroke="#e8e8e8" stroke-width="2"/><text x="100" y="105" fill="#e8e8e8" font-size="10" text-anchor="middle">Tank</text>
  <circle cx="200" cy="100" r="20" fill="none" stroke="#e8e8e8" stroke-width="2"/><text x="200" y="105" fill="#e8e8e8" font-size="10" text-anchor="middle">Pump</text>
  <line x1="120" y1="100" x2="180" y2="100" stroke="#c9463d" stroke-width="3"/>
  <circle cx="100" cy="200" r="20" fill="none" stroke="#e8e8e8" stroke-width="2"/><text x="100" y="205" fill="#e8e8e8" font-size="10" text-anchor="middle">Dec</text>
  <line x1="100" y1="120" x2="100" y2="180" stroke="#c9463d" stroke-width="3"/>
  <rect x="310" y="10" width="280" height="280" rx="4" fill="none" stroke="#6abe30" stroke-width="2" stroke-dasharray="6,3"/>
  <text x="450" y="270" fill="#6abe30" font-size="14" text-anchor="middle">Green Wire Network</text>
  <circle cx="400" cy="100" r="20" fill="none" stroke="#e8e8e8" stroke-width="2"/><text x="400" y="105" fill="#e8e8e8" font-size="10" text-anchor="middle">Chest</text>
  <circle cx="500" cy="100" r="20" fill="none" stroke="#e8e8e8" stroke-width="2"/><text x="500" y="105" fill="#e8e8e8" font-size="10" text-anchor="middle">Ins</text>
  <line x1="420" y1="100" x2="480" y2="100" stroke="#6abe30" stroke-width="3"/>
  <circle cx="450" cy="200" r="20" fill="none" stroke="#e8e8e8" stroke-width="2"/><text x="450" y="205" fill="#e8e8e8" font-size="10" text-anchor="middle">Arith</text>
  <line x1="450" y1="120" x2="450" y2="180" stroke="#6abe30" stroke-width="3"/>
  <text x="300" y="150" fill="#888" font-size="20" text-anchor="middle">x</text>
</svg>