<svg xmlns="http://www.w3.org/2000/svg" viewBox="0 0 820 114" width="820" height="114">
  <rect width="820" height="114" fill="#1f1f1f" rx="4"/>
  <!-- Heavy oil tank + pump -->
  <rect x="30" y="15" width="63" height="50" rx="3" fill="#2a2a2a" stroke="#8b4513"/>
  <text x="68" y="32" text-anchor="middle" font-size="11" fill="#d4a017">Heavy</text>
  <text x="68" y="44" text-anchor="middle" font-size="10" fill="#666">Tank</text>
  <line x1="93" y1="35" x2="126" y2="35" stroke="#555" stroke-width="1.5"/>
  <polygon points="126,30 139,35 126,40" fill="#555"/>
  <text x="152" y="29" text-anchor="middle" font-size="9" fill="#666">if &gt;20k</text>
  <rect x="158" y="15" width="84" height="50" rx="3" fill="#2a2a2a" stroke="#444"/>
  <text x="210" y="35" text-anchor="middle" font-size="11" fill="#888">Cracker H→L</text>
  <!-- Light oil tank + pump -->
  <rect x="30" y="65" width="63" height="37" rx="3" fill="#2a2a2a" stroke="#d4a017"/>
  <text x="68" y="84" text-anchor="middle" font-size="11" fill="#f0c040">Light Tank</text>
  <line x1="93" y1="80" x2="126" y2="80" stroke="#555" stroke-width="1.5"/>
  <polygon points="126,75 139,80 126,85" fill="#555"/>
  <text x="152" y="74" text-anchor="middle" font-size="9" fill="#666">if &gt;20k</text>
  <rect x="158" y="65" width="84" height="37" rx="3" fill="#2a2a2a" stroke="#444"/>
  <text x="210" y="84" text-anchor="middle" font-size="11" fill="#888">Cracker L→P</text>
  <!-- Circuit wire -->
  <line x1="68" y1="55" x2="68" y2="65" stroke="#ff4400" stroke-width="1" stroke-dasharray="3"/>
  <line x1="68" y1="65" x2="133" y2="65" stroke="#ff4400" stroke-width="1" stroke-dasharray="3"/>
  <line x1="133" y1="65" x2="133" y2="80" stroke="#ff4400" stroke-width="1" stroke-dasharray="3"/>
  <text x="790" y="30" font-size="11" fill="#555">Circuit condition: connect red wire from heavy tank</text>
  <text x="790" y="48" font-size="11" fill="#555">to pump → Enable when Heavy Oil &gt; 20,000</text>
  <text x="790" y="66" font-size="11" fill="#555">Same config for light oil: enable cracking when</text>
  <text x="790" y="84" font-size="11" fill="#555">light oil &gt; 20,000 — preserves lubricant buffer</text>
</svg>
