<svg xmlns="http://www.w3.org/2000/svg" viewBox="0 0 960 160" width="100%" height="auto" style="display:block;margin:0 auto;max-width:960px">
  <defs>
    <filter id="g"><feGaussianBlur stdDeviation="2" result="b"/><feMerge><feMergeNode in="b"/><feMergeNode in="SourceGraphic"/></feMerge></filter>
  </defs>
  <rect width="960" height="160" fill="#1f1f1f" rx="6"/>
  <rect x="30" y="20" width="90" height="56" rx="4" fill="#2a2a2a" stroke="#8b4513" stroke-width="2"/>
  <text x="75" y="42" text-anchor="middle" font-size="12" fill="#d4a017">Heavy</text>
  <text x="75" y="60" text-anchor="middle" font-size="12" fill="#888">Tank</text>
  <line x1="130" y1="46" x2="155" y2="46" stroke="#555" stroke-width="2"/>
  <polygon points="155,40 170,46 155,52" fill="#555"/>
  <text x="192" y="38" text-anchor="middle" font-size="12" fill="#666">if &gt;20k</text>
  <rect x="210" y="20" width="110" height="56" rx="4" fill="#2a2a2a" stroke="#444" stroke-width="2"/>
  <text x="265" y="48" text-anchor="middle" font-size="12" fill="#888">Cracker H→L</text>
  <rect x="30" y="90" width="90" height="50" rx="4" fill="#2a2a2a" stroke="#d4a017" stroke-width="2"/>
  <text x="75" y="118" text-anchor="middle" font-size="12" fill="#f0c040">Light Tank</text>
  <line x1="130" y1="113" x2="155" y2="113" stroke="#555" stroke-width="2"/>
  <polygon points="155,107 170,113 155,119" fill="#555"/>
  <text x="192" y="106" text-anchor="middle" font-size="12" fill="#666">if &gt;20k</text>
  <rect x="210" y="90" width="110" height="50" rx="4" fill="#2a2a2a" stroke="#444" stroke-width="2"/>
  <text x="265" y="118" text-anchor="middle" font-size="12" fill="#888">Cracker L→P</text>
  <line x1="75" y1="72" x2="75" y2="90" stroke="#ff4400" stroke-width="1.5" stroke-dasharray="4"/>
  <line x1="75" y1="90" x2="158" y2="90" stroke="#ff4400" stroke-width="1.5" stroke-dasharray="4"/>
  <line x1="158" y1="90" x2="158" y2="113" stroke="#ff4400" stroke-width="1.5" stroke-dasharray="4"/>
  <text x="960" y="36" text-anchor="end" font-size="12" fill="#555">Circuit condition: red wire from heavy tank to pump</text>
  <text x="960" y="56" text-anchor="end" font-size="12" fill="#555">Enable pump when Heavy Oil &gt; 20,000</text>
  <text x="960" y="80" text-anchor="end" font-size="12" fill="#555">Same for light oil: enable cracking when</text>
  <text x="960" y="100" text-anchor="end" font-size="12" fill="#555">light oil &gt; 20,000 — preserves lubricant buffer</text>
</svg>