<svg xmlns="http://www.w3.org/2000/svg" viewBox="0 0 600 300" width="600" height="300" style="background:#111;font-family:system-ui,sans-serif;">
  <text x="150" y="30" fill="#e8941c" font-size="14" text-anchor="middle" font-weight="bold">Roundabout</text>
  <text x="450" y="30" fill="#e8941c" font-size="14" text-anchor="middle" font-weight="bold">Stacker</text>
  <rect x="20" y="50" width="100" height="100" rx="4" fill="#1a1a1a" stroke="#555" stroke-width="1"/>
  <rect x="180" y="50" width="100" height="100" rx="4" fill="#1a1a1a" stroke="#555" stroke-width="1"/>
  <rect x="20" y="150" width="100" height="100" rx="4" fill="#1a1a1a" stroke="#555" stroke-width="1"/>
  <rect x="180" y="150" width="100" height="100" rx="4" fill="#1a1a1a" stroke="#555" stroke-width="1"/>
  <circle cx="150" cy="150" r="35" fill="none" stroke="#6abe30" stroke-width="2"/>
  <circle cx="150" cy="150" r="25" fill="#1a1a1a" stroke="#6abe30" stroke-width="1"/>
  <line x1="115" y1="100" x2="120" y2="120" stroke="#6abe30" stroke-width="2"/>
  <text x="150" y="210" fill="#6abe30" font-size="9" text-anchor="middle">25-30 trains/min</text>
  <rect x="330" y="70" width="30" height="20" rx="2" fill="#252525" stroke="#555" stroke-width="1"/>
  <rect x="370" y="10" width="30" height="140" rx="2" fill="#252525" stroke="#3778c8" stroke-width="1.5"/>
  <rect x="410" y="10" width="30" height="140" rx="2" fill="#252525" stroke="#3778c8" stroke-width="1.5"/>
  <rect x="490" y="90" width="30" height="140" rx="2" fill="#252525" stroke="#3778c8" stroke-width="1.5"/>
  <rect x="530" y="90" width="30" height="140" rx="2" fill="#252525" stroke="#3778c8" stroke-width="1.5"/>
  <line x1="370" y1="80" x2="445" y2="80" stroke="#3778c8" stroke-width="2"/>
  <line x1="445" y1="80" x2="490" y2="160" stroke="#3778c8" stroke-width="2"/>
  <line x1="370" y1="80" x2="330" y2="80" stroke="#3778c8" stroke-width="2"/>
  <line x1="490" y1="160" x2="530" y2="160" stroke="#3778c8" stroke-width="2" stroke-dasharray="4,2"/>
  <text x="445" y="270" fill="#3778c8" font-size="9" text-anchor="middle">60+ trains/min</text>
  <rect x="330" y="240" width="230" height="30" rx="3" fill="#252525" stroke="#6abe30" stroke-width="1"/>
  <text x="445" y="258" fill="#6abe30" font-size="9" text-anchor="middle">Dedicated left/right turn lanes</text>
</svg>
