<svg xmlns="http://www.w3.org/2000/svg" viewBox="0 0 820 436" width="820" height="436">
  <defs><filter id="g"><feGaussianBlur stdDeviation="2" result="b"/><feMerge><feMergeNode in="b"/><feMergeNode in="SourceGraphic"/></feMerge></filter></defs>
  <rect width="820" height="436" fill="#1f1f1f" rx="6"/>
  <line x1="0" y1="60" x2="820" y2="60" stroke="#333"/>
  <text x="701" y="38" text-anchor="middle" font-family="Orbitron,sans-serif" font-size="14" font-weight="900" fill="#ff6622">FLAMETHROWER WALL — KILL CORRIDOR LAYOUT</text>
  <!-- Biters -->
  <rect x="30" y="100" width="84" height="46" rx="4" fill="#442200" stroke="#ff6622" stroke-dasharray="4"/>
  <text x="100" y="124" text-anchor="middle" font-size="10" fill="#ff6622">Biters →</text>
  <!-- Outer Wall -->
  <rect x="189" y="90" width="8" height="206" rx="1" fill="#555" stroke="#888" stroke-width="8"/>
  <text x="196" y="188" text-anchor="middle" font-size="7" fill="#888" transform="rotate(-90,196,188)">Outer Wall (double-thick)</text>
  <!-- Kill Corridor (4 tiles wide) -->
  <rect x="206" y="90" width="42" height="206" fill="#440000" fill-opacity="0.15" stroke="#ff6622" stroke-width="42" stroke-dasharray="2"/>
  <text x="242" y="185" text-anchor="middle" font-size="8" fill="#ff6622" opacity="0.6">Kill</text>
  <text x="242" y="195" text-anchor="middle" font-size="8" fill="#ff6622" opacity="0.6">Corridor</text>
  <!-- Inner Wall -->
  <rect x="277" y="90" width="6" height="206" rx="1" fill="#555" stroke="#888" stroke-width="6"/>
  <!-- Flamethrower Turrets -->
  <rect x="303" y="90" width="42" height="46" rx="3" fill="#2a0a00" stroke="#ff6622" stroke-width="1.5"/>
  <circle cx="339" cy="110" r="10" fill="#ff4400" opacity="0.6"/>
  <circle cx="339" cy="110" r="5" fill="#ffcc00"/>
  <text x="339" y="142" text-anchor="middle" font-size="8" fill="#ff6622">Flame F</text>
  <rect x="303" y="160" width="42" height="46" rx="3" fill="#2a0a00" stroke="#ff6622" stroke-width="1.5"/>
  <circle cx="339" cy="180" r="10" fill="#ff4400" opacity="0.6"/>
  <circle cx="339" cy="180" r="5" fill="#ffcc00"/>
  <text x="339" y="212" text-anchor="middle" font-size="8" fill="#ff6622">Flame F</text>
  <rect x="303" y="230" width="42" height="46" rx="3" fill="#2a0a00" stroke="#ff6622" stroke-width="1.5"/>
  <circle cx="339" cy="250" r="10" fill="#ff4400" opacity="0.6"/>
  <circle cx="339" cy="250" r="5" fill="#ffcc00"/>
  <text x="339" y="282" text-anchor="middle" font-size="8" fill="#ff6622">Flame F</text>
  <!-- Gun Turrets -->
  <rect x="401" y="90" width="42" height="46" rx="3" fill="#200000" stroke="#cc4400" stroke-width="1.5"/>
  <circle cx="436" cy="110" r="8" fill="#555"/>
  <rect x="429" y="104" width="8" height="13" rx="1" fill="#888"/>
  <text x="436" y="142" text-anchor="middle" font-size="8" fill="#cc4400">Gun G</text>
  <rect x="401" y="160" width="42" height="46" rx="3" fill="#200000" stroke="#cc4400" stroke-width="1.5"/>
  <circle cx="436" cy="180" r="8" fill="#555"/>
  <rect x="429" y="174" width="8" height="13" rx="1" fill="#888"/>
  <text x="436" y="212" text-anchor="middle" font-size="8" fill="#cc4400">Gun G</text>
  <rect x="401" y="230" width="42" height="46" rx="3" fill="#200000" stroke="#cc4400" stroke-width="1.5"/>
  <circle cx="436" cy="250" r="8" fill="#555"/>
  <rect x="429" y="244" width="8" height="13" rx="1" fill="#888"/>
  <text x="436" y="282" text-anchor="middle" font-size="8" fill="#cc4400">Gun G</text>
  <!-- Spacing label -->
  <line x1="410" y1="88" x2="410" y2="80" stroke="#444"/>
  <line x1="480" y1="88" x2="480" y2="80" stroke="#444"/>
  <text x="445" y="78" text-anchor="middle" font-size="7" fill="#666">4 tiles spacing</text>
  <!-- Ammo belt -->
  <rect x="489" y="130" width="10" height="149" rx="2" fill="#8b2500" stroke="#cc4400" stroke-width="10"/>
  <text x="498" y="200" text-anchor="middle" font-size="7" fill="#cc4400" transform="rotate(-90,498,200)">Ammo Belt</text>
  <!-- Oil pipe -->
  <rect x="524" y="130" width="10" height="149" rx="5" fill="#2a1a0a" stroke="#d4a017" stroke-width="10"/>
  <text x="533" y="200" text-anchor="middle" font-size="7" fill="#d4a017" transform="rotate(-90,533,200)">Oil Pipe</text>
  <!-- Roboport -->
  <rect x="577" y="140" width="73" height="57" rx="4" fill="#1a1a2a" stroke="#44aaff" stroke-width="73"/>
  <text x="639" y="160" text-anchor="middle" font-size="9" fill="#44aaff">Roboport</text>
  <text x="639" y="176" text-anchor="middle" font-size="7" fill="#888">Repair zone</text>
  <!-- Legend -->
  <rect x="577" y="210" width="126" height="63" rx="4" fill="#1a1a1a" stroke="#333"/>
  <text x="683" y="228" text-anchor="middle" font-size="9" fill="#888">Spacing Pattern</text>
  <text x="683" y="242" text-anchor="middle" font-size="8" fill="#666">F - G - F - G - F - G ...</text>
  <text x="683" y="256" text-anchor="middle" font-size="7" fill="#555">F = Flamethrower, G = Gun Turret</text>
  <!-- Summary -->
  <text x="701" y="365" text-anchor="middle" font-size="9" fill="#555">One pumpjack supplies 30+ flamethrower turrets | Wall + dragon's teeth optional outside</text>
</svg>
