<svg xmlns="http://www.w3.org/2000/svg" viewBox="0 0 820 380" width="820" height="380">
  <defs><filter id="g"><feGaussianBlur stdDeviation="2" result="b"/><feMerge><feMergeNode in="b"/><feMergeNode in="SourceGraphic"/></feMerge></filter></defs>
  <rect width="820" height="380" fill="#1f1f1f" rx="6"/>
  <line x1="0" y1="60" x2="820" y2="60" stroke="#333"/>
  <text x="410" y="38" text-anchor="middle" font-family="Orbitron,sans-serif" font-size="14" font-weight="900" fill="#ff6622">FLAMETHROWER WALL — KILL CORRIDOR LAYOUT</text>
  <!-- Biters -->
  <rect x="30" y="100" width="80" height="40" rx="4" fill="#442200" stroke="#ff6622" stroke-dasharray="4"/>
  <text x="70" y="124" text-anchor="middle" font-size="10" fill="#ff6622">Biters →</text>
  <!-- Outer Wall -->
  <rect x="120" y="90" width="8" height="180" rx="1" fill="#555" stroke="#888" stroke-width="1"/>
  <text x="124" y="188" text-anchor="middle" font-size="7" fill="#888" transform="rotate(-90,124,188)">Outer Wall (double-thick)</text>
  <!-- Kill Corridor (4 tiles wide) -->
  <rect x="130" y="90" width="40" height="180" fill="#440000" fill-opacity="0.15" stroke="#ff6622" stroke-width="1" stroke-dasharray="2"/>
  <text x="150" y="185" text-anchor="middle" font-size="8" fill="#ff6622" opacity="0.6">Kill</text>
  <text x="150" y="195" text-anchor="middle" font-size="8" fill="#ff6622" opacity="0.6">Corridor</text>
  <!-- Inner Wall -->
  <rect x="170" y="90" width="6" height="180" rx="1" fill="#555" stroke="#888" stroke-width="1"/>
  <!-- Flamethrower Turrets -->
  <rect x="185" y="90" width="40" height="40" rx="3" fill="#2a0a00" stroke="#ff6622" stroke-width="1.5"/>
  <circle cx="205" cy="110" r="10" fill="#ff4400" opacity="0.6"/>
  <circle cx="205" cy="110" r="5" fill="#ffcc00"/>
  <text x="205" y="142" text-anchor="middle" font-size="8" fill="#ff6622">Flame F</text>
  <rect x="185" y="160" width="40" height="40" rx="3" fill="#2a0a00" stroke="#ff6622" stroke-width="1.5"/>
  <circle cx="205" cy="180" r="10" fill="#ff4400" opacity="0.6"/>
  <circle cx="205" cy="180" r="5" fill="#ffcc00"/>
  <text x="205" y="212" text-anchor="middle" font-size="8" fill="#ff6622">Flame F</text>
  <rect x="185" y="230" width="40" height="40" rx="3" fill="#2a0a00" stroke="#ff6622" stroke-width="1.5"/>
  <circle cx="205" cy="250" r="10" fill="#ff4400" opacity="0.6"/>
  <circle cx="205" cy="250" r="5" fill="#ffcc00"/>
  <text x="205" y="282" text-anchor="middle" font-size="8" fill="#ff6622">Flame F</text>
  <!-- Gun Turrets -->
  <rect x="240" y="90" width="40" height="40" rx="3" fill="#200000" stroke="#cc4400" stroke-width="1.5"/>
  <circle cx="260" cy="110" r="8" fill="#555"/>
  <rect x="256" y="104" width="8" height="12" rx="1" fill="#888"/>
  <text x="260" y="142" text-anchor="middle" font-size="8" fill="#cc4400">Gun G</text>
  <rect x="240" y="160" width="40" height="40" rx="3" fill="#200000" stroke="#cc4400" stroke-width="1.5"/>
  <circle cx="260" cy="180" r="8" fill="#555"/>
  <rect x="256" y="174" width="8" height="12" rx="1" fill="#888"/>
  <text x="260" y="212" text-anchor="middle" font-size="8" fill="#cc4400">Gun G</text>
  <rect x="240" y="230" width="40" height="40" rx="3" fill="#200000" stroke="#cc4400" stroke-width="1.5"/>
  <circle cx="260" cy="250" r="8" fill="#555"/>
  <rect x="256" y="244" width="8" height="12" rx="1" fill="#888"/>
  <text x="260" y="282" text-anchor="middle" font-size="8" fill="#cc4400">Gun G</text>
  <!-- Spacing label -->
  <line x1="245" y1="88" x2="245" y2="80" stroke="#444"/>
  <line x1="285" y1="88" x2="285" y2="80" stroke="#444"/>
  <text x="265" y="78" text-anchor="middle" font-size="7" fill="#666">4 tiles spacing</text>
  <!-- Ammo belt -->
  <rect x="290" y="130" width="10" height="130" rx="2" fill="#8b2500" stroke="#cc4400" stroke-width="1"/>
  <text x="295" y="200" text-anchor="middle" font-size="7" fill="#cc4400" transform="rotate(-90,295,200)">Ammo Belt</text>
  <!-- Oil pipe -->
  <rect x="310" y="130" width="10" height="130" rx="5" fill="#2a1a0a" stroke="#d4a017" stroke-width="1"/>
  <text x="315" y="200" text-anchor="middle" font-size="7" fill="#d4a017" transform="rotate(-90,315,200)">Oil Pipe</text>
  <!-- Roboport -->
  <rect x="340" y="140" width="70" height="50" rx="4" fill="#1a1a2a" stroke="#44aaff" stroke-width="1"/>
  <text x="375" y="160" text-anchor="middle" font-size="9" fill="#44aaff">Roboport</text>
  <text x="375" y="176" text-anchor="middle" font-size="7" fill="#888">Repair zone</text>
  <!-- Legend -->
  <rect x="340" y="210" width="120" height="55" rx="4" fill="#1a1a1a" stroke="#333"/>
  <text x="400" y="228" text-anchor="middle" font-size="9" fill="#888">Spacing Pattern</text>
  <text x="400" y="242" text-anchor="middle" font-size="8" fill="#666">F - G - F - G - F - G ...</text>
  <text x="400" y="256" text-anchor="middle" font-size="7" fill="#555">F = Flamethrower, G = Gun Turret</text>
  <!-- Summary -->
  <text x="410" y="365" text-anchor="middle" font-size="9" fill="#555">One pumpjack supplies 30+ flamethrower turrets | Wall + dragon's teeth optional outside</text>
</svg>
