<svg xmlns="http://www.w3.org/2000/svg" viewBox="0 0 600 350" width="600" height="350" style="background:#111;font-family:system-ui,sans-serif;">
  <text x="300" y="30" fill="#e8941c" font-size="16" text-anchor="middle" font-weight="bold">Scrap Output Distribution (per 1000 scrap)</text>
  <rect x="60" y="55" width="40" height="200" rx="2" fill="#6abe30" opacity="0.8"/>
  <text x="80" y="270" fill="#6abe30" font-size="9" text-anchor="middle">Ice</text><text x="80" y="282" fill="#6abe30" font-size="9" text-anchor="middle">250</text>
  <rect x="120" y="85" width="40" height="170" rx="2" fill="#888" opacity="0.8"/>
  <text x="140" y="270" fill="#888" font-size="9" text-anchor="middle">IronGr</text><text x="140" y="282" fill="#888" font-size="9" text-anchor="middle">150</text>
  <rect x="180" y="103" width="40" height="152" rx="2" fill="#c8824c" opacity="0.8"/>
  <text x="200" y="270" fill="#c8824c" font-size="9" text-anchor="middle">IrnPl</text><text x="200" y="282" fill="#c8824c" font-size="9" text-anchor="middle">120</text>
  <rect x="240" y="115" width="40" height="140" rx="2" fill="#c9463d" opacity="0.8"/>
  <text x="260" y="270" fill="#c9463d" font-size="9" text-anchor="middle">CuPl</text><text x="260" y="282" fill="#c9463d" font-size="9" text-anchor="middle">100</text>
  <rect x="300" y="127" width="40" height="128" rx="2" fill="#777" opacity="0.8"/>
  <text x="320" y="270" fill="#777" font-size="9" text-anchor="middle">Concrete</text><text x="320" y="282" fill="#777" font-size="9" text-anchor="middle">80</text>
  <rect x="360" y="137" width="40" height="118" rx="2" fill="#3778c8" opacity="0.8"/>
  <text x="380" y="270" fill="#3778c8" font-size="9" text-anchor="middle">Stone</text><text x="380" y="282" fill="#3778c8" font-size="9" text-anchor="middle">70</text>
  <rect x="420" y="183" width="40" height="72" rx="2" fill="#9d4edd" opacity="0.8"/>
  <text x="440" y="270" fill="#9d4edd" font-size="9" text-anchor="middle">Holmium</text><text x="440" y="282" fill="#9d4edd" font-size="9" text-anchor="middle">50</text>
  <rect x="480" y="195" width="40" height="60" rx="2" fill="#d7b940" opacity="0.8"/>
  <text x="500" y="270" fill="#d7b940" font-size="9" text-anchor="middle">Blue Ckt</text><text x="500" y="282" fill="#d7b940" font-size="9" text-anchor="middle">25</text>
  <line x1="60" y1="255" x2="520" y2="255" stroke="#444" stroke-width="1"/>
  <text x="300" y="310" fill="#777" font-size="11" text-anchor="middle">Holmium is rare at 5%. Need 20+ recyclers for steady output.</text>
</svg>
