<svg xmlns="http://www.w3.org/2000/svg" viewBox="0 0 820 340" width="820" height="340">
  <defs><filter id="g"><feGaussianBlur stdDeviation="2" result="b"/><feMerge><feMergeNode in="b"/><feMergeNode in="SourceGraphic"/></feMerge></filter></defs>
  <rect width="820" height="340" fill="#1f1f1f" rx="6"/>
  <line x1="0" y1="60" x2="820" y2="60" stroke="#333" stroke-width="1"/>
  <text x="410" y="38" text-anchor="middle" font-family="Orbitron,sans-serif" font-size="14" font-weight="900" fill="#6abe30">GREEN SCIENCE — PRODUCTION FLOW</text>
  <!-- Inserter Assembly -->
  <rect x="30" y="90" width="140" height="90" rx="4" fill="#2a2a2a" stroke="#444"/>
  <text x="100" y="112" text-anchor="middle" font-size="10" fill="#888">Assembler 1</text>
  <text x="100" y="130" text-anchor="middle" font-size="10" fill="#999">Inserter</text>
  <text x="100" y="148" text-anchor="middle" font-size="8" fill="#666">1 Gear + 1 Circuit + 1 Iron</text>
  <!-- Arrow -->
  <line x1="170" y1="135" x2="200" y2="135" stroke="#6abe30" stroke-width="2"/>
  <polygon points="200,131 208,135 200,139" fill="#6abe30"/>
  <!-- Belt Assembly -->
  <rect x="220" y="90" width="140" height="90" rx="4" fill="#2a2a2a" stroke="#444"/>
  <text x="290" y="112" text-anchor="middle" font-size="10" fill="#888">Assembler 1</text>
  <text x="290" y="130" text-anchor="middle" font-size="10" fill="#999">Transport Belt</text>
  <text x="290" y="148" text-anchor="middle" font-size="8" fill="#666">1 Iron Plate</text>
  <!-- Arrow -->
  <line x1="360" y1="135" x2="390" y2="135" stroke="#6abe30" stroke-width="2"/>
  <polygon points="390,131 398,135 390,139" fill="#6abe30"/>
  <!-- Both inputs merging -->
  <line x1="208" y1="135" x2="220" y2="135" stroke="#444"/>
  <line x1="208" y1="135" x2="208" y2="240" stroke="#444"/>
  <line x1="398" y1="135" x2="410" y2="135" stroke="#444"/>
  <line x1="398" y1="135" x2="398" y2="240" stroke="#444"/>
  <line x1="208" y1="240" x2="398" y2="240" stroke="#444"/>
  <line x1="303" y1="240" x2="303" y2="255" stroke="#6abe30" stroke-width="2"/>
  <polygon points="303,251 311,255 303,259" fill="#6abe30"/>
  <!-- Green Science Array -->
  <rect x="210" y="260" width="200" height="60" rx="4" fill="#2a2a2a" stroke="#6abe30" stroke-width="1.5"/>
  <text x="310" y="284" text-anchor="middle" font-size="11" fill="#6abe30" font-weight="700">Green Science Assemblers × 10</text>
  <text x="310" y="302" text-anchor="middle" font-size="9" fill="#888">1 Inserter + 1 Belt → 1 Green Science</text>
  <!-- Output -->
  <line x1="410" y1="290" x2="460" y2="290" stroke="#6abe30" stroke-width="2"/>
  <polygon points="460,286 468,290 460,294" fill="#6abe30"/>
  <!-- Labs -->
  <rect x="470" y="260" width="100" height="60" rx="4" fill="#2a2a2a" stroke="#444"/>
  <text x="520" y="288" text-anchor="middle" font-size="11" fill="#999">Labs</text>
  <text x="520" y="304" text-anchor="middle" font-size="9" fill="#666">Both sciences</text>
  <!-- Bottom note -->
  <text x="410" y="330" text-anchor="middle" font-size="9" fill="#555">Ratio: 1 Inserter + 1 Belt assembler → 10 Green Science assemblers</text>
</svg>
