<svg xmlns="http://www.w3.org/2000/svg" viewBox="0 0 820 459" width="820" height="459">
  <defs><filter id="g"><feGaussianBlur stdDeviation="2" result="b"/><feMerge><feMergeNode in="b"/><feMergeNode in="SourceGraphic"/></feMerge></filter></defs>
  <rect width="820" height="459" fill="#1f1f1f" rx="6"/>
  <line x1="0" y1="60" x2="820" y2="60" stroke="#333"/>
  <text x="410" y="38" text-anchor="middle" font-family="Orbitron,sans-serif" font-size="14" font-weight="900" fill="#44ff88">NUCLEAR POWER — 2×2 REACTOR LAYOUT</text>
  <!-- Reactors -->
  <rect x="70" y="90" width="126" height="75" rx="4" fill="#0a1a2a" stroke="#44ff88" stroke-width="2"/>
  <text x="130" y="116" text-anchor="middle" font-size="13" fill="#44ff88" font-weight="700">Reactor A</text>
  <text x="130" y="132" text-anchor="middle" font-size="12" fill="#888">160°C</text>
  <rect x="210" y="90" width="126" height="75" rx="4" fill="#0a1a2a" stroke="#44ff88" stroke-width="2"/>
  <text x="270" y="116" text-anchor="middle" font-size="13" fill="#44ff88" font-weight="700">Reactor B</text>
  <text x="270" y="132" text-anchor="middle" font-size="12" fill="#888">160°C</text>
  <!-- Neighbor bonus indicator -->
  <rect x="180" y="96" width="42" height="60" rx="3" fill="#44ff88" fill-opacity="0.15" stroke="#44ff88" stroke-width="1" stroke-dasharray="3"/>
  <text x="200" y="124" text-anchor="middle" font-size="11" fill="#44ff88">+100%</text>
  <rect x="70" y="165" width="126" height="75" rx="4" fill="#0a1a2a" stroke="#44ff88" stroke-width="2"/>
  <text x="130" y="191" text-anchor="middle" font-size="13" fill="#44ff88" font-weight="700">Reactor C</text>
  <text x="130" y="207" text-anchor="middle" font-size="12" fill="#888">160°C</text>
  <rect x="210" y="165" width="126" height="75" rx="4" fill="#0a1a2a" stroke="#44ff88" stroke-width="2"/>
  <text x="270" y="191" text-anchor="middle" font-size="13" fill="#44ff88" font-weight="700">Reactor D</text>
  <text x="270" y="207" text-anchor="middle" font-size="12" fill="#888">160°C</text>
  <!-- Center bonus -->
  <rect x="180" y="170" width="42" height="62" rx="3" fill="#44ff88" fill-opacity="0.25" stroke="#44ff88" stroke-width="1" stroke-dasharray="3"/>
  <text x="200" y="199" text-anchor="middle" font-size="11" fill="#44ff88">×3</text>
  <!-- Bonus labels -->
  <text x="130" y="158" text-anchor="middle" font-size="10" fill="#44ff88" opacity="0.7">+100%</text>
  <text x="270" y="158" text-anchor="middle" font-size="10" fill="#44ff88" opacity="0.7">+100%</text>
  <text x="130" y="236" text-anchor="middle" font-size="10" fill="#44ff88" opacity="0.7">+100%</text>
  <text x="270" y="236" text-anchor="middle" font-size="10" fill="#44ff88" opacity="0.7">+100%</text>
  <!-- Heat pipes going left -->
  <rect x="10" y="96" width="57" height="117" rx="3" fill="#444" stroke="#ff6644" stroke-width="1.5"/>
  <text x="37" y="132" text-anchor="middle" font-size="11" fill="#ff6644">Heat</text>
  <text x="37" y="148" text-anchor="middle" font-size="11" fill="#ff6644">Pipe</text>
  <rect x="335" y="96" width="57" height="117" rx="3" fill="#444" stroke="#ff6644" stroke-width="1.5"/>
  <text x="362" y="132" text-anchor="middle" font-size="11" fill="#ff6644">Heat</text>
  <text x="362" y="148" text-anchor="middle" font-size="11" fill="#ff6644">Pipe</text>
  <!-- Heat Exchangers -->
  <rect x="395" y="90" width="105" height="30" rx="3" fill="#2a2a2a" stroke="#ff6644"/>
  <text x="445" y="106" text-anchor="middle" font-size="12" fill="#ff6644">HeatEx × 12</text>
  <rect x="395" y="118" width="105" height="30" rx="3" fill="#2a2a2a" stroke="#ff6644"/>
  <text x="445" y="134" text-anchor="middle" font-size="12" fill="#ff6644">HeatEx × 12</text>
  <rect x="395" y="146" width="105" height="30" rx="3" fill="#2a2a2a" stroke="#ff6644"/>
  <text x="445" y="162" text-anchor="middle" font-size="12" fill="#ff6644">HeatEx × 12</text>
  <rect x="395" y="174" width="105" height="30" rx="3" fill="#2a2a2a" stroke="#ff6644"/>
  <text x="445" y="190" text-anchor="middle" font-size="12" fill="#ff6644">HeatEx × 12</text>
  <!-- Total 48 heat exchangers -->
  <text x="445" y="215" text-anchor="middle" font-size="12" fill="#888">Total: 48 Heat Exchangers</text>
  <!-- Turbines -->
  <rect x="510" y="85" width="105" height="27" rx="3" fill="#2a2a2a" stroke="#88ccff"/>
  <text x="560" y="100" text-anchor="middle" font-size="12" fill="#88ccff">Steam Turbine × 21</text>
  <rect x="510" y="111" width="105" height="27" rx="3" fill="#2a2a2a" stroke="#88ccff"/>
  <text x="560" y="126" text-anchor="middle" font-size="12" fill="#88ccff">Steam Turbine × 21</text>
  <rect x="510" y="137" width="105" height="27" rx="3" fill="#2a2a2a" stroke="#88ccff"/>
  <text x="560" y="152" text-anchor="middle" font-size="12" fill="#88ccff">Steam Turbine × 21</text>
  <rect x="510" y="163" width="105" height="27" rx="3" fill="#2a2a2a" stroke="#88ccff"/>
  <text x="560" y="178" text-anchor="middle" font-size="12" fill="#88ccff">Steam Turbine × 21</text>
  <!-- Total -->
  <text x="560" y="215" text-anchor="middle" font-size="12" fill="#888">Total: 84 Turbines</text>
  <!-- Water pipes -->
  <rect x="620" y="85" width="42" height="137" rx="3" fill="#2277cc" fill-opacity="0.2" stroke="#44aaff"/>
  <text x="640" y="145" text-anchor="middle" font-size="10" fill="#44aaff">H₂O</text>
  <!-- Summary -->
  <rect x="130" y="260" width="399" height="68" rx="4" fill="#0a1a2a" stroke="#44ff88" stroke-width="1"/>
  <text x="320" y="280" text-anchor="middle" font-size="13" fill="#44ff88">2×2 Reactor: 480 MW total</text>
  <text x="320" y="298" text-anchor="middle" font-size="12" fill="#888">Fuel: 72 cells/hr | 4 Offshore Pumps | 6.67 MW per cell</text>
  <!-- Fuel cycle mini-flow -->
  <rect x="130" y="330" width="94" height="37" rx="3" fill="#2a2a2a" stroke="#444"/>
  <text x="175" y="349" text-anchor="middle" font-size="11" fill="#888">Uranium Mining</text>
  <line x1="220" y1="345" x2="235" y2="345" stroke="#444" stroke-width="1.5"/>
  <polygon points="235,341 241,345 235,349" fill="#444"/>
  <rect x="243" y="330" width="94" height="37" rx="3" fill="#2a2a2a" stroke="#444"/>
  <text x="288" y="349" text-anchor="middle" font-size="11" fill="#888">Centrifuge × 1</text>
  <line x1="333" y1="345" x2="348" y2="345" stroke="#444" stroke-width="1.5"/>
  <polygon points="348,341 354,345 348,349" fill="#444"/>
  <rect x="356" y="330" width="115" height="37" rx="3" fill="#2a2a2a" stroke="#444"/>
  <text x="411" y="349" text-anchor="middle" font-size="11" fill="#888">Fuel Assembly → Reactor</text>
</svg>
