<svg xmlns="http://www.w3.org/2000/svg" viewBox="0 0 1000 520" width="100%" height="auto" style="display:block;margin:0 auto;max-width:1000px">
  <defs>
    <filter id="g"><feGaussianBlur stdDeviation="2" result="b"/><feMerge><feMergeNode in="b"/><feMergeNode in="SourceGraphic"/></feMerge></filter>
  </defs>
  <rect width="1000" height="520" fill="#1f1f1f" rx="8"/>
  <line x1="0" y1="70" x2="1000" y2="70" stroke="#333"/>
  <text x="500" y="44" text-anchor="middle" font-family="Orbitron,sans-serif" font-size="20" font-weight="900" fill="#d4a017">OIL PROCESSING — CRACKING BALANCE</text>
  <rect x="40" y="100" width="210" height="120" rx="6" fill="#2a2a2a" stroke="#d4a017" stroke-width="2.5"/>
  <text x="145" y="136" text-anchor="middle" font-size="16" font-weight="700" fill="#d4a017">Refinery × 8</text>
  <text x="145" y="162" text-anchor="middle" font-size="12" fill="#888">Advanced Processing</text>
  <text x="145" y="188" text-anchor="middle" font-size="12" fill="#666">Crude + Water → 3 outputs</text>
  <line x1="270" y1="130" x2="310" y2="130" stroke="#8b4513" stroke-width="3"/>
  <line x1="270" y1="168" x2="310" y2="168" stroke="#d4a017" stroke-width="3"/>
  <line x1="270" y1="206" x2="310" y2="206" stroke="#5599ee" stroke-width="3"/>
  <rect x="310" y="105" width="200" height="55" rx="5" fill="#2a2a2a" stroke="#8b4513" stroke-width="2.5"/>
  <text x="410" y="128" text-anchor="middle" font-size="13" font-weight="700" fill="#d4a017">Heavy Oil (50/s)</text>
  <text x="410" y="148" text-anchor="middle" font-size="12" fill="#888">→ 1 Cracker (Heavy→Light)</text>
  <line x1="530" y1="129" x2="575" y2="129" stroke="#8b4513" stroke-width="2.5"/>
  <polygon points="575,123 592,129 575,135" fill="#8b4513"/>
  <rect x="310" y="175" width="200" height="55" rx="5" fill="#2a2a2a" stroke="#d4a017" stroke-width="2.5"/>
  <text x="410" y="198" text-anchor="middle" font-size="13" font-weight="700" fill="#f0c040">Light Oil (50/s)</text>
  <text x="410" y="218" text-anchor="middle" font-size="12" fill="#888">→ 7 Crackers (Light→Petro)</text>
  <line x1="530" y1="199" x2="575" y2="199" stroke="#d4a017" stroke-width="2.5"/>
  <polygon points="575,193 592,199 575,205" fill="#d4a017"/>
  <rect x="310" y="245" width="200" height="55" rx="5" fill="#2a2a2a" stroke="#5599ee" stroke-width="2.5"/>
  <text x="410" y="268" text-anchor="middle" font-size="13" font-weight="700" fill="#88bbff">Petroleum Gas (30/s)</text>
  <text x="410" y="288" text-anchor="middle" font-size="12" fill="#888">→ Plastic, Sulfur</text>
  <line x1="530" y1="269" x2="575" y2="269" stroke="#5599ee" stroke-width="2.5"/>
  <polygon points="575,263 592,269 575,275" fill="#5599ee"/>
  <rect x="310" y="320" width="200" height="50" rx="5" fill="#2a2a2a" stroke="#44aa77" stroke-width="2.5"/>
  <text x="410" y="342" text-anchor="middle" font-size="13" font-weight="700" fill="#66cc99">→ Lubricant</text>
  <text x="410" y="360" text-anchor="middle" font-size="12" fill="#888">Consumes excess heavy oil</text>
  <rect x="592" y="105" width="210" height="210" rx="6" fill="#2a2a2a" stroke="#d4a017" stroke-width="2.5"/>
  <text x="697" y="138" text-anchor="middle" font-size="15" font-weight="700" fill="#d4a017">Cracking Plants</text>
  <line x1="612" y1="148" x2="782" y2="148" stroke="#444" stroke-width="1.5"/>
  <text x="697" y="172" text-anchor="middle" font-size="13" fill="#888">Heavy→Light:  1 plant</text>
  <text x="697" y="196" text-anchor="middle" font-size="13" fill="#888">Light→Petro:  7 plants</text>
  <text x="697" y="225" text-anchor="middle" font-size="13" fill="#888">40 Heavy → 30 Light (2s)</text>
  <text x="697" y="249" text-anchor="middle" font-size="13" fill="#888">30 Light → 20 Petro (2s)</text>
  <line x1="822" y1="180" x2="862" y2="180" stroke="#5599ee" stroke-width="2.5"/>
  <polygon points="862,174 879,180 862,186" fill="#5599ee"/>
  <rect x="879" y="145" width="100" height="70" rx="6" fill="#2a2a2a" stroke="#5599ee" stroke-width="2.5"/>
  <text x="929" y="176" text-anchor="middle" font-size="14" font-weight="700" fill="#88bbff">Plastic</text>
  <text x="929" y="198" text-anchor="middle" font-size="12" fill="#888">+ Sulfur</text>
  <rect x="592" y="335" width="387" height="55" rx="6" fill="#1f1f0f" stroke="#d4a017" stroke-width="2"/>
  <text x="785" y="358" text-anchor="middle" font-size="14" font-weight="700" fill="#d4a017">8 : 1 : 7 — Perfect Cracking Ratio</text>
  <text x="785" y="380" text-anchor="middle" font-size="13" fill="#888">No output backlog · Maximum plastic throughput</text>
  <text x="500" y="440" text-anchor="middle" font-size="13" fill="#555">Critical: Petroleum is consumed fastest — prioritize Light→Petroleum cracking</text>
</svg>
