<svg xmlns="http://www.w3.org/2000/svg" viewBox="0 0 820 380" width="820" height="380">
  <defs><filter id="g"><feGaussianBlur stdDeviation="2" result="b"/><feMerge><feMergeNode in="b"/><feMergeNode in="SourceGraphic"/></feMerge></filter></defs>
  <rect width="820" height="380" fill="#1f1f1f" rx="6"/>
  <line x1="0" y1="60" x2="820" y2="60" stroke="#333"/>
  <text x="410" y="38" text-anchor="middle" font-family="Orbitron,sans-serif" font-size="14" font-weight="900" fill="#d4a017">OIL PROCESSING — CRACKING BALANCE</text>
  <!-- Refinery Row -->
  <rect x="20" y="90" width="130" height="65" rx="4" fill="#2a2a2a" stroke="#d4a017" stroke-width="1.5"/>
  <text x="85" y="112" text-anchor="middle" font-size="11" fill="#d4a017" font-weight="700">Refinery × 8</text>
  <text x="85" y="130" text-anchor="middle" font-size="9" fill="#888">Advanced Processing</text>
  <text x="85" y="146" text-anchor="middle" font-size="8" fill="#666">Crude + Water → 3 outputs</text>
  <!-- Three output pipes -->
  <line x1="150" y1="105" x2="170" y2="105" stroke="#8b4513" stroke-width="2"/>
  <line x1="150" y1="123" x2="170" y2="123" stroke="#d4a017" stroke-width="2"/>
  <line x1="150" y1="142" x2="170" y2="142" stroke="#5599ee" stroke-width="2"/>
  <!-- Heavy Oil -->
  <rect x="170" y="88" width="120" height="35" rx="3" fill="#2a2a2a" stroke="#8b4513"/>
  <text x="230" y="105" text-anchor="middle" font-size="9" fill="#d4a017">Heavy Oil (50/s)</text>
  <text x="230" y="116" text-anchor="middle" font-size="7" fill="#666">→ 1 Cracker (Heavy→Light)</text>
  <line x1="290" y1="105" x2="325" y2="105" stroke="#8b4513" stroke-width="1.5"/>
  <polygon points="325,101 333,105 325,109" fill="#8b4513"/>
  <!-- Light Oil -->
  <rect x="170" y="140" width="120" height="35" rx="3" fill="#2a2a2a" stroke="#d4a017"/>
  <text x="230" y="155" text-anchor="middle" font-size="9" fill="#f0c040">Light Oil (50/s)</text>
  <line x1="290" y1="158" x2="325" y2="158" stroke="#d4a017" stroke-width="1.5"/>
  <polygon points="325,154 333,158 325,162" fill="#d4a017"/>
  <!-- Petroleum -->
  <rect x="170" y="190" width="120" height="35" rx="3" fill="#2a2a2a" stroke="#5599ee"/>
  <text x="230" y="205" text-anchor="middle" font-size="9" fill="#88bbff">Petroleum (30/s)</text>
  <line x1="290" y1="208" x2="325" y2="208" stroke="#5599ee" stroke-width="1.5"/>
  <polygon points="325,204 333,208 325,212" fill="#5599ee"/>
  <!-- Lubricant branch -->
  <rect x="170" y="240" width="120" height="30" rx="3" fill="#2a2a2a" stroke="#44aa77"/>
  <text x="230" y="259" text-anchor="middle" font-size="9" fill="#66cc99">→ Lubricant</text>
  <!-- Cracking Plants -->
  <rect x="340" y="90" width="130" height="110" rx="4" fill="#2a2a2a" stroke="#d4a017"/>
  <text x="405" y="110" text-anchor="middle" font-size="10" fill="#d4a017" font-weight="700">Cracking Plants</text>
  <line x1="350" y1="118" x2="460" y2="118" stroke="#444" stroke-width="1"/>
  <text x="405" y="134" text-anchor="middle" font-size="9" fill="#888">Heavy→Light: 1 plant</text>
  <text x="405" y="150" text-anchor="middle" font-size="9" fill="#888">Light→Petro: 7 plants</text>
  <text x="405" y="166" text-anchor="middle" font-size="9" fill="#888">40 Heavy → 30 Light (2s)</text>
  <text x="405" y="182" text-anchor="middle" font-size="9" fill="#888">30 Light → 20 Petro (2s)</text>
  <!-- Outputs -->
  <line x1="470" y1="145" x2="510" y2="145" stroke="#5599ee" stroke-width="2"/>
  <polygon points="510,141 518,145 510,149" fill="#5599ee"/>
  <rect x="520" y="125" width="130" height="40" rx="4" fill="#2a2a2a" stroke="#444"/>
  <text x="585" y="142" text-anchor="middle" font-size="10" fill="#888">Plastic × N</text>
  <text x="585" y="157" text-anchor="middle" font-size="9" fill="#666">Sulfur production</text>
  <!-- Balance note -->
  <rect x="340" y="220" width="310" height="35" rx="4" fill="#1a1a0a" stroke="#444" stroke-width="1"/>
  <text x="495" y="238" text-anchor="middle" font-size="9" fill="#d4a017">8:1:7 — Perfect cracking ratio</text>
  <text x="495" y="250" text-anchor="middle" font-size="8" fill="#666">= no output backlog, maximum plastic throughput</text>
  <!-- Bottom -->
  <text x="410" y="360" text-anchor="middle" font-size="9" fill="#555">Critical: Petroleum is consumed fastest — prioritize light→petroleum cracking</text>
</svg>
