<svg xmlns="http://www.w3.org/2000/svg" viewBox="0 0 820 345" width="820" height="345">
  <defs><filter id="g"><feGaussianBlur stdDeviation="2" result="b"/><feMerge><feMergeNode in="b"/><feMergeNode in="SourceGraphic"/></feMerge></filter></defs>
  <rect width="820" height="345" fill="#1f1f1f" rx="6"/>
  <line x1="0" y1="50" x2="820" y2="50" stroke="#333"/>
  <text x="410" y="32" text-anchor="middle" font-family="Orbitron,sans-serif" font-size="13" font-weight="900" fill="#d4a017">OIL REFINERY — PIPE MANIFOLD LAYOUT</text>
  <!-- Water pipe from above -->
  <rect x="30" y="65" width="798" height="3" rx="1" fill="#44aaff"/>
  <text x="790" y="68" text-anchor="end" font-size="11" fill="#44aaff">Water Supply</text>
  <!-- Refinery row -->
  <rect x="30" y="80" width="92" height="62" rx="3" fill="#2a2a2a" stroke="#d4a017" stroke-width="1.5"/>
  <text x="74" y="100" text-anchor="middle" font-size="11" fill="#d4a017">Refinery</text>
  <text x="74" y="112" text-anchor="middle" font-size="10" fill="#888">1</text>
  <rect x="128" y="80" width="92" height="62" rx="3" fill="#2a2a2a" stroke="#d4a017" stroke-width="1.5"/>
  <text x="172" y="100" text-anchor="middle" font-size="11" fill="#d4a017">Refinery</text>
  <text x="172" y="112" text-anchor="middle" font-size="10" fill="#888">2</text>
  <rect x="226" y="80" width="92" height="62" rx="3" fill="#2a2a2a" stroke="#d4a017" stroke-width="1.5"/>
  <text x="270" y="100" text-anchor="middle" font-size="11" fill="#d4a017">Refinery</text>
  <text x="270" y="112" text-anchor="middle" font-size="10" fill="#888">3</text>
  <rect x="324" y="80" width="92" height="62" rx="3" fill="#2a2a2a" stroke="#d4a017" stroke-width="1.5"/>
  <text x="368" y="100" text-anchor="middle" font-size="11" fill="#d4a017">Refinery</text>
  <text x="368" y="112" text-anchor="middle" font-size="10" fill="#888">4</text>
  <text x="450" y="105" text-anchor="middle" font-size="12" fill="#555">... 4 more refineries</text>
  <!-- Heavy oil pipe -->
  <rect x="30" y="140" width="462" height="3" rx="1" fill="#8b4513"/>
  <text x="470" y="143" text-anchor="end" font-size="11" fill="#8b4513">Heavy Oil → Lube + Cracker</text>
  <!-- Light oil pipe -->
  <rect x="30" y="150" width="462" height="3" rx="1" fill="#d4a017"/>
  <text x="470" y="153" text-anchor="end" font-size="11" fill="#d4a017">Light Oil → Fuel + Cracker</text>
  <!-- Petroleum pipe -->
  <rect x="30" y="160" width="462" height="3" rx="1" fill="#5599ee"/>
  <text x="470" y="163" text-anchor="end" font-size="11" fill="#5599ee">Petroleum → Plastic + Sulfur</text>
  <!-- Vertical pipe connections from each refinery to the 3 main pipes -->
  <line x1="74" y1="130" x2="74" y2="140" stroke="#8b4513" stroke-width="1.5"/>
  <line x1="74" y1="130" x2="74" y2="150" stroke="#d4a017" stroke-width="1.5"/>
  <line x1="74" y1="130" x2="74" y2="160" stroke="#5599ee" stroke-width="1.5"/>
  <line x1="172" y1="130" x2="172" y2="140" stroke="#8b4513" stroke-width="1.5"/>
  <line x1="172" y1="130" x2="172" y2="150" stroke="#d4a017" stroke-width="1.5"/>
  <line x1="172" y1="130" x2="172" y2="160" stroke="#5599ee" stroke-width="1.5"/>
  <line x1="270" y1="130" x2="270" y2="140" stroke="#8b4513" stroke-width="1.5"/>
  <line x1="270" y1="130" x2="270" y2="150" stroke="#d4a017" stroke-width="1.5"/>
  <line x1="270" y1="130" x2="270" y2="160" stroke="#5599ee" stroke-width="1.5"/>
  <line x1="368" y1="130" x2="368" y2="140" stroke="#8b4513" stroke-width="1.5"/>
  <line x1="368" y1="130" x2="368" y2="150" stroke="#d4a017" stroke-width="1.5"/>
  <line x1="368" y1="130" x2="368" y2="160" stroke="#5599ee" stroke-width="1.5"/>
  <!-- Underground pipe note -->
  <text x="410" y="195" text-anchor="middle" font-size="12" fill="#555">Use underground pipes every 2 tiles between refineries for walkability</text>
  <!-- Downstream crackers -->
  <rect x="50" y="210" width="126" height="43" rx="3" fill="#2a2a2a" stroke="#8b4513"/>
  <text x="110" y="228" text-anchor="middle" font-size="12" fill="#d4a017">H→L Cracker × 1</text>
  <text x="110" y="240" text-anchor="middle" font-size="10" fill="#666">Heavy→Light</text>
  <line x1="170" y1="228" x2="190" y2="228" stroke="#8b4513" stroke-width="1.5"/>
  <rect x="190" y="210" width="126" height="43" rx="3" fill="#2a2a2a" stroke="#d4a017"/>
  <text x="250" y="228" text-anchor="middle" font-size="12" fill="#f0c040">L→P Cracker × 7</text>
  <text x="250" y="240" text-anchor="middle" font-size="10" fill="#666">Light→Petro</text>
  <!-- Legend row -->
  <rect x="50" y="260" width="12" height="15" rx="1" fill="#8b4513"/>
  <text x="68" y="270" text-anchor="start" font-size="11" fill="#666">Heavy</text>
  <rect x="130" y="260" width="12" height="15" rx="1" fill="#d4a017"/>
  <text x="148" y="270" text-anchor="start" font-size="11" fill="#666">Light</text>
  <rect x="210" y="260" width="12" height="15" rx="1" fill="#5599ee"/>
  <text x="228" y="270" text-anchor="start" font-size="11" fill="#666">Petroleum</text>
  <rect x="320" y="260" width="12" height="15" rx="1" fill="#44aaff"/>
  <text x="338" y="270" text-anchor="start" font-size="11" fill="#666">Water</text>
</svg>
