<svg xmlns="http://www.w3.org/2000/svg" viewBox="0 0 960 400" width="100%" height="auto" style="display:block;margin:0 auto;max-width:960px">
  <defs>
    <filter id="g"><feGaussianBlur stdDeviation="2" result="b"/><feMerge><feMergeNode in="b"/><feMergeNode in="SourceGraphic"/></feMerge></filter>
  </defs>
  <rect width="960" height="400" fill="#1f1f1f" rx="8"/>
  <line x1="0" y1="58" x2="960" y2="58" stroke="#333"/>
  <text x="480" y="36" text-anchor="middle" font-family="Orbitron,sans-serif" font-size="18" font-weight="900" fill="#d4a017">OIL REFINERY — PIPE MANIFOLD LAYOUT</text>
  <rect x="30" y="72" width="900" height="4" rx="2" fill="#44aaff"/>
  <text x="940" y="76" text-anchor="end" font-size="12" fill="#44aaff">Water Supply</text>
  <rect x="30" y="90" width="110" height="60" rx="4" fill="#2a2a2a" stroke="#d4a017" stroke-width="2"/>
  <text x="85" y="114" text-anchor="middle" font-size="12" fill="#d4a017">Refinery 1</text>
  <rect x="152" y="90" width="110" height="60" rx="4" fill="#2a2a2a" stroke="#d4a017" stroke-width="2"/>
  <text x="207" y="114" text-anchor="middle" font-size="12" fill="#d4a017">Refinery 2</text>
  <rect x="274" y="90" width="110" height="60" rx="4" fill="#2a2a2a" stroke="#d4a017" stroke-width="2"/>
  <text x="329" y="114" text-anchor="middle" font-size="12" fill="#d4a017">Refinery 3</text>
  <rect x="396" y="90" width="110" height="60" rx="4" fill="#2a2a2a" stroke="#d4a017" stroke-width="2"/>
  <text x="451" y="114" text-anchor="middle" font-size="12" fill="#d4a017">Refinery 4</text>
  <text x="560" y="120" text-anchor="middle" font-size="13" fill="#555">... 4 more refineries</text>
  <rect x="30" y="162" width="570" height="4" rx="2" fill="#8b4513"/>
  <text x="610" y="166" text-anchor="end" font-size="12" fill="#8b4513">Heavy Oil → Lube + Cracker</text>
  <rect x="30" y="174" width="570" height="4" rx="2" fill="#d4a017"/>
  <text x="610" y="178" text-anchor="end" font-size="12" fill="#d4a017">Light Oil → Fuel + Cracker</text>
  <rect x="30" y="186" width="570" height="4" rx="2" fill="#5599ee"/>
  <text x="610" y="190" text-anchor="end" font-size="12" fill="#5599ee">Petroleum → Plastic + Sulfur</text>
  <line x1="85" y1="150" x2="85" y2="162" stroke="#8b4513" stroke-width="2"/>
  <line x1="85" y1="150" x2="85" y2="174" stroke="#d4a017" stroke-width="2"/>
  <line x1="85" y1="150" x2="85" y2="186" stroke="#5599ee" stroke-width="2"/>
  <line x1="207" y1="150" x2="207" y2="162" stroke="#8b4513" stroke-width="2"/>
  <line x1="207" y1="150" x2="207" y2="174" stroke="#d4a017" stroke-width="2"/>
  <line x1="207" y1="150" x2="207" y2="186" stroke="#5599ee" stroke-width="2"/>
  <line x1="329" y1="150" x2="329" y2="162" stroke="#8b4513" stroke-width="2"/>
  <line x1="329" y1="150" x2="329" y2="174" stroke="#d4a017" stroke-width="2"/>
  <line x1="329" y1="150" x2="329" y2="186" stroke="#5599ee" stroke-width="2"/>
  <line x1="451" y1="150" x2="451" y2="162" stroke="#8b4513" stroke-width="2"/>
  <line x1="451" y1="150" x2="451" y2="174" stroke="#d4a017" stroke-width="2"/>
  <line x1="451" y1="150" x2="451" y2="186" stroke="#5599ee" stroke-width="2"/>
  <text x="480" y="218" text-anchor="middle" font-size="12" fill="#555">Use underground pipes every 2 tiles between refineries for walkability</text>
  <rect x="50" y="238" width="150" height="45" rx="4" fill="#2a2a2a" stroke="#8b4513" stroke-width="2"/>
  <text x="125" y="258" text-anchor="middle" font-size="12" fill="#d4a017">H→L Cracker × 1</text>
  <text x="125" y="274" text-anchor="middle" font-size="12" fill="#666">Heavy→Light</text>
  <line x1="210" y1="258" x2="235" y2="258" stroke="#8b4513" stroke-width="2"/>
  <rect x="235" y="238" width="150" height="45" rx="4" fill="#2a2a2a" stroke="#d4a017" stroke-width="2"/>
  <text x="310" y="258" text-anchor="middle" font-size="12" fill="#f0c040">L→P Cracker × 7</text>
  <text x="310" y="274" text-anchor="middle" font-size="12" fill="#666">Light→Petro</text>
  <rect x="50" y="300" width="16" height="16" rx="2" fill="#8b4513"/>
  <text x="72" y="312" font-size="12" fill="#666">Heavy</text>
  <rect x="145" y="300" width="16" height="16" rx="2" fill="#d4a017"/>
  <text x="167" y="312" font-size="12" fill="#666">Light</text>
  <rect x="240" y="300" width="16" height="16" rx="2" fill="#5599ee"/>
  <text x="262" y="312" font-size="12" fill="#666">Petroleum</text>
  <rect x="365" y="300" width="16" height="16" rx="2" fill="#44aaff"/>
  <text x="387" y="312" font-size="12" fill="#666">Water</text>
</svg>