<svg xmlns="http://www.w3.org/2000/svg" viewBox="0 0 600 300" width="600" height="300" style="background:#111;font-family:system-ui,sans-serif;">
  <text x="300" y="30" fill="#e8941c" font-size="16" text-anchor="middle" font-weight="bold">Gleba Spoilage Cycle</text>
  <rect x="50" y="70" width="100" height="50" rx="4" fill="#252525" stroke="#6abe30" stroke-width="2"/>
  <text x="100" y="95" fill="#ccc" font-size="12" text-anchor="middle">Yumako</text><text x="100" y="110" fill="#6abe30" font-size="9" text-anchor="middle">fresh: 100%</text>
  <line x1="150" y1="95" x2="200" y2="95" stroke="#888" stroke-width="2"/>
  <text x="175" y="88" fill="#888" font-size="9" text-anchor="middle">2 min</text>
  <rect x="210" y="70" width="100" height="50" rx="4" fill="#252525" stroke="#d7b940" stroke-width="2"/>
  <text x="260" y="95" fill="#ccc" font-size="12" text-anchor="middle">Bioflux</text><text x="260" y="110" fill="#d7b940" font-size="9" text-anchor="middle">50% fresh</text>
  <line x1="310" y1="95" x2="360" y2="95" stroke="#888" stroke-width="2"/>
  <text x="335" y="88" fill="#888" font-size="9" text-anchor="middle">2 min</text>
  <rect x="370" y="70" width="100" height="50" rx="4" fill="#252525" stroke="#c9463d" stroke-width="2"/>
  <text x="420" y="95" fill="#ccc" font-size="12" text-anchor="middle">Spoilage</text><text x="420" y="110" fill="#c9463d" font-size="9" text-anchor="middle">0% fresh</text>
  <path d="M420,120 L420,180 L160,180 L160,145" stroke="#c9463d" stroke-width="1.5" stroke-dasharray="4,3" fill="none"/>
  <text x="290" y="195" fill="#c9463d" font-size="10" text-anchor="middle">Recycle back: 2 spoilage = 1 nutrient</text>
  <text x="100" y="250" fill="#777" font-size="10" text-anchor="middle">Freshness: 100%</text>
  <text x="260" y="250" fill="#777" font-size="10" text-anchor="middle">Freshness: 50%</text>
  <text x="420" y="250" fill="#777" font-size="10" text-anchor="middle">Spoiled: 0%</text>
  <rect x="60" y="257" width="80" height="8" rx="4" fill="#6abe30"/>
  <rect x="220" y="257" width="80" height="8" rx="4" fill="#d7b940"/>
  <rect x="380" y="257" width="80" height="8" rx="4" fill="#c9463d"/>
</svg>
