<svg xmlns="http://www.w3.org/2000/svg" viewBox="0 0 600 250" width="600" height="250" style="background:#111;font-family:system-ui,sans-serif;">
  <text x="300" y="30" fill="#e8941c" font-size="16" text-anchor="middle" font-weight="bold">Space Platform Layout</text>
  <rect x="30" y="100" width="540" height="40" rx="2" fill="#2a2a2a" stroke="#555" stroke-width="1"/>
  <text x="300" y="190" fill="#444" font-size="10" text-anchor="middle">Platform Hull (5 tiles wide)</text>
  <rect x="30" y="100" width="60" height="40" rx="2" fill="#1a1a2e" stroke="#9d4edd" stroke-width="2"/>
  <text x="60" y="125" fill="#fff" font-size="10" text-anchor="middle" font-weight="bold">Hub</text>
  <rect x="100" y="95" width="40" height="15" rx="3" fill="#252525" stroke="#00b8d4" stroke-width="1.5"/>
  <text x="120" y="106" fill="#00b8d4" font-size="7" text-anchor="middle">Collect</text>
  <rect x="155" y="95" width="60" height="50" rx="3" fill="#252525" stroke="#888" stroke-width="1.5"/>
  <text x="185" y="115" fill="#ccc" font-size="9" text-anchor="middle">Crushers</text><text x="185" y="128" fill="#888" font-size="8" text-anchor="middle">x6</text>
  <rect x="230" y="95" width="70" height="50" rx="3" fill="#252525" stroke="#888" stroke-width="1.5"/>
  <text x="265" y="112" fill="#ccc" font-size="9" text-anchor="middle">Chemical</text><text x="265" y="125" fill="#888" font-size="8" text-anchor="middle">Plants</text>
  <rect x="315" y="95" width="50" height="50" rx="3" fill="#252525" stroke="#888" stroke-width="1.5"/>
  <text x="340" y="112" fill="#ccc" font-size="9" text-anchor="middle">Fuel</text><text x="340" y="125" fill="#888" font-size="8" text-anchor="middle">Tanks</text>
  <rect x="380" y="95" width="50" height="50" rx="3" fill="#252525" stroke="#888" stroke-width="1.5"/>
  <text x="405" y="112" fill="#ccc" font-size="9" text-anchor="middle">Ammo</text><text x="405" y="125" fill="#888" font-size="8" text-anchor="middle">Prod</text>
  <rect x="445" y="105" width="40" height="30" rx="3" fill="#252525" stroke="#c9463d" stroke-width="1.5"/>
  <text x="465" y="121" fill="#c9463d" font-size="8" text-anchor="middle">Guns</text>
  <rect x="500" y="105" width="40" height="30" rx="3" fill="#252525" stroke="#f5aa2e" stroke-width="2"/>
  <text x="520" y="121" fill="#f5aa2e" font-size="8" text-anchor="middle">Thrust</text>
  <path d="M540,120 L570,110 L570,130 Z" fill="#f5aa2e" opacity="0.3"/>
  <text x="565" y="165" fill="#f5aa2e" font-size="8" text-anchor="middle">Exhaust</text>
  <text x="60" y="220" fill="#777" font-size="9" text-anchor="middle">Front</text>
  <text x="520" y="220" fill="#777" font-size="9" text-anchor="middle">Back</text>
  <line x1="60" y1="210" x2="60" y2="205" stroke="#444" stroke-width="1"/>
  <line x1="520" y1="210" x2="520" y2="205" stroke="#444" stroke-width="1"/>
</svg>
