<svg xmlns="http://www.w3.org/2000/svg" viewBox="0 0 600 250" width="600" height="250" style="background:#111;font-family:system-ui,sans-serif;">
  <text x="300" y="30" fill="#e8941c" font-size="16" text-anchor="middle" font-weight="bold">Agri Science Production Chain</text>
  <rect x="20" y="70" width="90" height="45" rx="4" fill="#252525" stroke="#6abe30" stroke-width="2" />
  <text x="65" y="90" fill="#ccc" font-size="11" text-anchor="middle">Yumako</text><text x="65" y="103" fill="#6abe30" font-size="12" text-anchor="middle">6 harvesters</text>
  <line x1="110" y1="92" x2="150" y2="92" stroke="#888" stroke-width="2" />
  <rect x="150" y="70" width="90" height="45" rx="4" fill="#252525" stroke="#d7b940" stroke-width="2" />
  <text x="195" y="90" fill="#ccc" font-size="11" text-anchor="middle">Bioflux</text><text x="195" y="103" fill="#d7b940" font-size="12" text-anchor="middle">2 assemblers</text>
  <line x1="240" y1="92" x2="280" y2="92" stroke="#888" stroke-width="2" />
  <rect x="280" y="70" width="90" height="45" rx="4" fill="#252525" stroke="#9d4edd" stroke-width="2" />
  <text x="325" y="90" fill="#ccc" font-size="11" text-anchor="middle">Nutrients</text><text x="325" y="103" fill="#9d4edd" font-size="12" text-anchor="middle">3 assemblers</text>
  <line x1="370" y1="92" x2="410" y2="92" stroke="#888" stroke-width="2" />
  <rect x="410" y="70" width="90" height="45" rx="4" fill="#252525" stroke="#3778c8" stroke-width="2" />
  <text x="455" y="90" fill="#ccc" font-size="11" text-anchor="middle">Eggs</text><text x="455" y="103" fill="#3778c8" font-size="12" text-anchor="middle">1 raiser</text>
  <line x1="500" y1="92" x2="540" y2="92" stroke="#888" stroke-width="2" />
  <rect x="540" y="70" width="50" height="45" rx="4" fill="#252525" stroke="#f5aa2e" stroke-width="2" />
  <text x="565" y="95" fill="#f5aa2e" font-size="10" text-anchor="middle">Science</text>
  <text x="65" y="150" fill="#777" font-size="12" text-anchor="middle">10/s</text>
  <text x="195" y="150" fill="#777" font-size="12" text-anchor="middle">2/s</text>
  <text x="325" y="150" fill="#777" font-size="12" text-anchor="middle">3/s</text>
  <text x="455" y="150" fill="#777" font-size="12" text-anchor="middle">1/s</text>
  <text x="565" y="150" fill="#777" font-size="12" text-anchor="middle">8/s</text>
  <rect x="20" y="175" width="580" height="1" fill="#333" />
  <text x="300" y="215" fill="#888" font-size="12" text-anchor="middle">8 agri science assemblers = 1 full belt of science packs</text>
</svg>