<svg xmlns="http://www.w3.org/2000/svg" viewBox="0 0 900 400" width="900" height="400">
  <defs><marker id="l1" markerWidth="10" markerHeight="7" refX="9" refY="3.5" orient="auto"><path d="M0,0 L10,3.5 L0,7 Z" fill="#58a6ff" /></marker><marker id="l2" markerWidth="10" markerHeight="7" refX="9" refY="3.5" orient="auto"><path d="M0,0 L10,3.5 L0,7 Z" fill="#f0883e" /></marker><marker id="l3" markerWidth="10" markerHeight="7" refX="9" refY="3.5" orient="auto"><path d="M0,0 L10,3.5 L0,7 Z" fill="#3fb950" /></marker></defs>
  <style>.bg{fill:#0d1117}.box{fill:#161b22;stroke-width:2;rx:8}.lbl{font-family:'Segoe UI',sans-serif;font-size:17px;font-weight:bold;fill:#e6edf3}.sub{font-family:'Segoe UI',sans-serif;font-size:13px;fill:#8b949e}.arr{stroke-width:3;fill:none}</style>
  <rect width="900" height="400" class="bg" rx="10" />
  <text x="450" y="38" text-anchor="middle" style="font-family:'Segoe UI';font-size:22px;font-weight:bold;fill:#e6edf3">LTN 3-Stop System</text>
  <line x1="30" y1="52" x2="870" y2="52" stroke="#21262d" />

  
  <rect x="80" y="80" width="160" height="85" class="box" stroke="#3fb950" /><text x="160" y="115" text-anchor="middle" class="lbl">Depot</text><text x="160" y="140" text-anchor="middle" class="sub">Idle trains wait here</text><text x="160" y="155" text-anchor="middle" style="font-size:15px;fill:#8b949e">Min 2 trains required</text>

  
  <line x1="240" y1="122" x2="340" y2="122" class="arr" stroke="#58a6ff" marker-end="url(#l1)" /><text x="290" y="112" text-anchor="middle" style="font-size:15px;fill:#c9d1d9">Empty train dispatched</text>

  
  <rect x="350" y="80" width="170" height="85" class="box" stroke="#58a6ff" /><text x="435" y="115" text-anchor="middle" class="lbl">Provider Stop</text><text x="435" y="140" text-anchor="middle" class="sub">Has items available</text><text x="435" y="155" text-anchor="middle" style="font-size:15px;fill:#8b949e">Wired to storage chest</text>

  
  <line x1="520" y1="122" x2="620" y2="122" class="arr" stroke="#f0883e" marker-end="url(#l2)" /><text x="570" y="112" text-anchor="middle" style="font-size:15px;fill:#c9d1d9">Loaded train</text>

  
  <rect x="630" y="80" width="170" height="85" class="box" stroke="#f0883e" /><text x="715" y="115" text-anchor="middle" class="lbl">Requester Stop</text><text x="715" y="140" text-anchor="middle" class="sub">Needs items delivered</text><text x="715" y="155" text-anchor="middle" style="font-size:15px;fill:#8b949e">Wired to requester chest</text>

  
  <path d="M 715 165 Q 715 200 400 200 Q 160 200 160 165" stroke="#3fb950" stroke-width="2" fill="none" marker-end="url(#l3)" />
  <text x="450" y="215" text-anchor="middle" style="font-size:15px;fill:#3fb950">Empty train returns to depot</text>

  
  <rect x="50" y="250" width="800" height="130" rx="8" fill="#161b22" stroke="#30363d" stroke-width="1" />
  <text x="450" y="282" text-anchor="middle" style="font-family:'Segoe UI';font-size:18px;font-weight:bold;fill:#e6edf3">Critical Rules</text>
  <line x1="70" y1="295" x2="830" y2="295" stroke="#21262d" />

  <text x="90" y="325" style="font-family:'Segoe UI';font-size:15px;font-weight:bold;fill:#da3633">1. Depot must have idle trains</text>
  <text x="90" y="345" class="sub">If all trains busy, network stalls. Keep 2+ idle at depot.</text>

  <text x="500" y="325" style="font-family:'Segoe UI';font-size:15px;font-weight:bold;fill:#58a6ff">2. Wire every stop</text>
  <text x="500" y="345" class="sub">Provider: storage chest → stop. Requester: requester chest → stop.</text>

  <text x="90" y="370" style="font-family:'Segoe UI';font-size:15px;font-weight:bold;fill:#f0883e">3. Trains have no schedule</text>
  <text x="90" y="390" class="sub">LTN assigns schedules. Clear vanilla schedules from depot trains.</text>
</svg>